<?xml version="1.0" encoding="UTF-8"?>
<!DOCTYPE svg PUBLIC "-//W3C//DTD SVG 1.1//EN" "http://www.w3.org/Graphics/SVG/1.1/DTD/svg11.dtd">
<!-- Creator: CorelDRAW 2018 (64-Bit) -->
<svg xmlns="http://www.w3.org/2000/svg" xml:space="preserve" width="3.56916in" height="3.54198in" version="1.1" style="shape-rendering:geometricPrecision; text-rendering:geometricPrecision; image-rendering:optimizeQuality; fill-rule:evenodd; clip-rule:evenodd"
viewBox="0 0 3566.38 3539.22"
 xmlns:xlink="http://www.w3.org/1999/xlink">
 <defs>
  <style type="text/css">
   <![CDATA[
    .str0 {stroke:#373435;stroke-width:7.87;stroke-miterlimit:2.61313}
    .fil0 {fill:#373435}
   ]]>
  </style>
 </defs>
 <g id="Layer_x0020_1">
  <metadata id="CorelCorpID_0Corel-Layer"/>
  <path class="fil0 str0" d="M3532.25 34.14c40.27,40.27 40.27,106.16 0,146.43l-3324.53 3324.53c-40.27,40.27 -106.16,40.27 -146.43,-0 -40.27,-40.27 -40.27,-106.16 0,-146.43l721.85 -721.85c-313.42,-179.41 -586.56,-442.84 -778.61,-780.79 385.83,-678.93 1098.9,-1057.35 1808.44,-1057.35 226.45,0 455.94,49.34 673.17,135.14l899.69 -899.69c40.27,-40.27 106.16,-40.27 146.43,0zm-2372.89 2226.46l246.04 -246.04c-20.52,-48.75 -31.88,-102.31 -31.88,-158.53 0,-225.89 183.13,-409.02 409.02,-409.02 56.22,0 109.78,11.35 158.53,31.88l246.04 -246.04c-116.41,-75.73 -255.34,-119.74 -404.57,-119.74 -410.3,0 -742.92,332.62 -742.92,742.92 0,149.23 44.01,288.16 119.74,404.57zm1713.59 -1127.89c296.6,190.74 543.44,446.65 687.59,723.31 -298.66,573.19 -1038.05,1057.35 -1747.58,1057.35 -210.23,0 -420.78,-33.21 -623.03,-97.65l283.82 -283.82c94.04,43.03 198.6,67.05 308.78,67.05 410.3,0 742.92,-332.62 742.92,-742.92 0,-110.18 -24.01,-214.74 -67.05,-308.78l414.54 -414.54zm-683.34 683.34c1.28,13.15 1.95,26.49 1.95,39.97 0,225.89 -183.13,409.02 -409.02,409.02 -13.49,0 -26.82,-0.67 -39.97,-1.95l447.05 -447.05z"/>
 </g>
</svg>
