<?xml version="1.0" encoding="UTF-8"?>
<!DOCTYPE svg PUBLIC "-//W3C//DTD SVG 1.1//EN" "http://www.w3.org/Graphics/SVG/1.1/DTD/svg11.dtd">
<!-- Creator: CorelDRAW 2018 (64-Bit) -->
<svg xmlns="http://www.w3.org/2000/svg" xml:space="preserve" width="226.195mm" height="83.17mm" version="1.1" style="shape-rendering:geometricPrecision; text-rendering:geometricPrecision; image-rendering:optimizeQuality; fill-rule:evenodd; clip-rule:evenodd"
viewBox="0 0 12012.03 4416.72"
 xmlns:xlink="http://www.w3.org/1999/xlink">
 <defs>
  <style type="text/css">
   <![CDATA[
    .fil2 {fill:#E6E7E8;fill-rule:nonzero}
    .fil1 {fill:#96989A;fill-rule:nonzero}
    .fil0 {fill:#606062;fill-rule:nonzero}
   ]]>
  </style>
 </defs>
 <g id="Layer_x0020_1">
  <metadata id="CorelCorpID_0Corel-Layer"/>
  <polygon class="fil0" points="12012.03,0 10822.29,4416.72 9569.77,4416.72 8769.86,1539.06 7997.29,4416.72 6737.68,4416.72 5547.95,0 6736.68,0 7415.08,3040.67 8230.18,0 9366.25,0 10148.95,3040.67 10860.76,0 "/>
  <polygon class="fil1" points="6737.43,4416.72 5595.28,4416.72 5595.28,1459.07 4780.18,3377.85 3998.5,3377.85 3183.4,1459.07 3183.4,4416.72 2108.08,4416.72 2108.08,0 3431.48,0 4420.73,2215.45 5405.94,0 6737.43,0 "/>
  <polygon class="fil2" points="3183.44,4416.72 -0,4416.72 -0,0 1142.15,0 1142.15,3560.11 3183.44,3560.11 "/>
 </g>
</svg>
