<?xml version="1.0" encoding="UTF-8"?>
<!DOCTYPE svg PUBLIC "-//W3C//DTD SVG 1.1//EN" "http://www.w3.org/Graphics/SVG/1.1/DTD/svg11.dtd">
<!-- Creator: CorelDRAW 2018 (64-Bit) -->
<svg xmlns="http://www.w3.org/2000/svg" xml:space="preserve" width="8.26772in" height="5.39535in" version="1.1" style="shape-rendering:geometricPrecision; text-rendering:geometricPrecision; image-rendering:optimizeQuality; fill-rule:evenodd; clip-rule:evenodd"
viewBox="0 0 8701.29 5678.3"
 xmlns:xlink="http://www.w3.org/1999/xlink">
 <defs>
  <style type="text/css">
   <![CDATA[
    .fil0 {fill:#FEB100}
    .fil1 {fill:white}
    .fil2 {fill:url(#id0)}
    .fil5 {fill:url(#id1)}
    .fil9 {fill:url(#id2)}
    .fil8 {fill:url(#id3)}
    .fil6 {fill:url(#id4)}
    .fil3 {fill:url(#id5)}
    .fil10 {fill:url(#id6)}
    .fil7 {fill:url(#id7)}
    .fil4 {fill:url(#id8)}
   ]]>
  </style>
  <linearGradient id="id0" gradientUnits="userSpaceOnUse" x1="4393.54" y1="5678.3" x2="4393.54" y2="1353.68">
   <stop offset="0" style="stop-opacity:1; stop-color:#FEB100"/>
   <stop offset="1" style="stop-opacity:1; stop-color:#F7CA68"/>
  </linearGradient>
  <linearGradient id="id1" gradientUnits="userSpaceOnUse" x1="4393.54" y1="5265.57" x2="4393.54" y2="1766.4">
   <stop offset="0" style="stop-opacity:1; stop-color:#FEB100"/>
   <stop offset="1" style="stop-opacity:1; stop-color:#F9C245"/>
  </linearGradient>
  <linearGradient id="id2" gradientUnits="userSpaceOnUse" x1="4393.54" y1="5243.63" x2="4393.54" y2="1788.34">
   <stop offset="0" style="stop-opacity:1; stop-color:#FEB100"/>
   <stop offset="1" style="stop-opacity:1; stop-color:#FCB717"/>
  </linearGradient>
  <linearGradient id="id3" gradientUnits="userSpaceOnUse" x1="4393.54" y1="5249.11" x2="4393.54" y2="1782.86">
   <stop offset="0" style="stop-opacity:1; stop-color:#FEB100"/>
   <stop offset="1" style="stop-opacity:1; stop-color:#FCB923"/>
  </linearGradient>
  <linearGradient id="id4" gradientUnits="userSpaceOnUse" x1="4393.54" y1="5260.08" x2="4393.54" y2="1771.89">
   <stop offset="0" style="stop-opacity:1; stop-color:#FEB100"/>
   <stop offset="1" style="stop-opacity:1; stop-color:#FABF3A"/>
  </linearGradient>
  <linearGradient id="id5" gradientUnits="userSpaceOnUse" x1="4393.54" y1="5329.16" x2="4393.54" y2="1702.81">
   <stop offset="0" style="stop-opacity:1; stop-color:#FEB100"/>
   <stop offset="1" style="stop-opacity:1; stop-color:#F8C75C"/>
  </linearGradient>
  <linearGradient id="id6" gradientUnits="userSpaceOnUse" x1="4393.54" y1="5238.15" x2="4393.54" y2="1793.82">
   <stop offset="0" style="stop-opacity:1; stop-color:#FEB100"/>
   <stop offset="1" style="stop-opacity:1; stop-color:#FDB40C"/>
  </linearGradient>
  <linearGradient id="id7" gradientUnits="userSpaceOnUse" x1="4393.54" y1="5254.6" x2="4393.54" y2="1777.37">
   <stop offset="0" style="stop-opacity:1; stop-color:#FEB100"/>
   <stop offset="1" style="stop-opacity:1; stop-color:#FBBC2E"/>
  </linearGradient>
  <linearGradient id="id8" gradientUnits="userSpaceOnUse" x1="4393.54" y1="5271.05" x2="4393.54" y2="1760.92">
   <stop offset="0" style="stop-opacity:1; stop-color:#FEB100"/>
   <stop offset="1" style="stop-opacity:1; stop-color:#F9C451"/>
  </linearGradient>
 </defs>
 <g id="Layer_x0020_1">
  <metadata id="CorelCorpID_0Corel-Layer"/>
  <path class="fil0" d="M7318.31 485.95l-4722.94 0 0 -213.95c0,-149.6 -122.4,-272 -272,-272l-1561.77 0c-149.62,0 -272,122.4 -272,272l0 213.95 -81.58 -0c-224.42,0 -408.02,183.6 -408.02,408l0 4376.35c0,224.39 183.6,408 408,408l6910.32 -0c224.39,0 408,-183.6 408,-408l0 -4376.35c0.02,-224.4 -183.58,-408 -408,-408z"/>
  <rect class="fil1" x="582.03" y="877.07" width="6562.27" height="4410.08"/>
  <path class="fil2" d="M7823.52 5282.02c-53.46,217.96 -280.79,396.28 -505.21,396.28l-6910.32 -0c-224.39,0 -364.27,-178.32 -310.81,-396.28l866.37 -3532.06c53.46,-217.96 280.79,-396.28 505.21,-396.28l6910.32 0c224.39,0 364.27,178.32 310.81,396.28l-866.37 3532.06z"/>
  <g id="_2379094088400">
   <path class="fil3" d="M7801.16 5276.54c-15.43,62.92 -185.41,90.61 -352.8,-40.21 -2045.14,-9.64 -4097.25,-15.53 -6154.69,-15.53 -455.4,0 -835.67,-158.5 -1044.09,-352.25 242.38,-1046.54 483.04,-2080.49 736.34,-3113.11 15.43,-62.92 185.41,-90.61 352.8,40.21 2045.14,9.64 4097.25,15.53 6154.69,15.53 455.4,0 835.67,158.5 1044.09,352.25 -242.38,1046.54 -483.04,2080.49 -736.34,3113.11z"/>
   <path class="fil4" d="M7778.81 5271.05c22.59,-92.11 -90.04,-215.05 -200.41,-476.69 -1786.83,-19.29 -3587.62,-31.06 -5399.05,-31.06 -686.41,0 -1307.07,-138.69 -1777.37,-308.22 195.97,-915.72 388.5,-1806.27 606.29,-2694.17 -22.59,92.11 90.04,215.05 200.41,476.69 1786.83,19.29 3587.62,31.06 5399.05,31.06 686.41,0 1307.07,138.69 1777.37,308.22 -195.97,915.72 -388.5,1806.27 -606.29,2694.17z"/>
   <path class="fil5" d="M7756.45 5265.57c60.62,-247.15 5.34,-520.72 -48.01,-913.17 -1528.53,-28.93 -3078,-46.59 -4643.41,-46.59 -917.41,0 -1778.48,-118.88 -2510.65,-264.19 149.55,-784.9 293.96,-1532.05 476.25,-2275.22 -60.62,247.15 -5.34,520.72 48.01,913.17 1528.53,28.93 3078,46.59 4643.41,46.59 917.41,0 1778.47,118.88 2510.65,264.19 -149.55,784.9 -293.96,1532.05 -476.25,2275.22z"/>
   <path class="fil6" d="M7734.1 5260.08c98.65,-402.18 100.71,-826.38 104.39,-1349.65 -1270.23,-38.57 -2568.38,-62.11 -3887.78,-62.11 -1148.41,0 -2249.88,-99.07 -3243.92,-220.16 103.14,-654.09 199.42,-1257.84 346.21,-1856.28 -98.65,402.18 -100.71,826.38 -104.39,1349.65 1270.23,38.57 2568.38,62.11 3887.78,62.11 1148.41,0 2249.87,99.07 3243.92,220.16 -103.14,654.09 -199.42,1257.84 -346.21,1856.28z"/>
   <path class="fil7" d="M7711.74 5254.6c136.68,-557.22 196.09,-1132.05 256.78,-1786.13 -1011.93,-48.21 -2058.75,-77.64 -3132.14,-77.64 -1379.42,0 -2721.28,-79.25 -3977.21,-176.13 56.72,-523.27 104.88,-983.62 216.17,-1437.33 -136.68,557.22 -196.09,1132.05 -256.78,1786.13 1011.93,48.21 2058.75,77.64 3132.14,77.64 1379.42,0 2721.28,79.25 3977.21,176.13 -56.72,523.27 -104.88,983.62 -216.17,1437.33z"/>
   <path class="fil8" d="M7689.38 5249.11c174.71,-712.25 291.46,-1437.71 409.18,-2222.61 -753.63,-57.85 -1549.13,-93.17 -2376.51,-93.17 -1610.43,0 -3192.68,-59.44 -4710.48,-132.09 10.31,-392.45 10.34,-709.41 86.13,-1018.38 -174.71,712.25 -291.46,1437.71 -409.18,2222.61 753.63,57.85 1549.13,93.17 2376.51,93.17 1610.43,0 3192.68,59.44 4710.48,132.09 -10.31,392.45 -10.34,709.41 -86.13,1018.38z"/>
   <path class="fil9" d="M7667.03 5243.63c212.73,-867.29 386.83,-1743.38 561.58,-2659.1 -495.33,-67.49 -1039.51,-108.7 -1620.88,-108.7 -1841.43,0 -3664.08,-39.63 -5443.76,-88.07 -36.1,-261.64 -84.2,-435.19 -43.92,-599.44 -212.73,867.29 -386.83,1743.38 -561.58,2659.1 495.32,67.49 1039.51,108.7 1620.88,108.7 1841.43,0 3664.08,39.63 5443.76,88.07 36.1,261.64 84.2,435.19 43.92,599.44z"/>
   <path class="fil10" d="M7644.67 5238.15c250.76,-1022.32 482.21,-2049.04 713.97,-3095.57 -237.02,-77.13 -529.88,-124.23 -865.24,-124.23 -2072.44,0 -4135.48,-19.81 -6177.04,-44.03 -82.52,-130.82 -178.74,-160.97 -173.96,-180.49 -250.76,1022.32 -482.21,2049.04 -713.97,3095.57 237.02,77.13 529.88,124.23 865.24,124.23 2072.44,0 4135.48,19.81 6177.04,44.03 82.52,130.82 178.74,160.97 173.96,180.49z"/>
  </g>
  <path class="fil0" d="M7622.31 5232.67l866.37 -3532.06c21.28,-86.77 -20.25,-139.75 -109.6,-139.75l-6910.32 -0c-128.93,0 -273.28,113.25 -304,238.46l-866.37 3532.06c-21.28,86.77 20.25,139.75 109.6,139.75l6910.32 0c128.93,0 273.28,-113.25 304,-238.46z"/>
 </g>
</svg>
