<?xml version="1.0" encoding="UTF-8"?>
<!DOCTYPE svg PUBLIC "-//W3C//DTD SVG 1.1//EN" "http://www.w3.org/Graphics/SVG/1.1/DTD/svg11.dtd">
<!-- Creator: CorelDRAW 2018 (64-Bit) -->
<svg xmlns="http://www.w3.org/2000/svg" xml:space="preserve" width="250.92mm" height="83.2286mm" version="1.1" style="shape-rendering:geometricPrecision; text-rendering:geometricPrecision; image-rendering:optimizeQuality; fill-rule:evenodd; clip-rule:evenodd"
viewBox="0 0 15490.77 5138.19"
 xmlns:xlink="http://www.w3.org/1999/xlink">
 <defs>
  <style type="text/css">
   <![CDATA[
    .fil0 {fill:#BDBFC1;fill-rule:nonzero}
    .fil1 {fill:#D40007;fill-rule:nonzero}
   ]]>
  </style>
 </defs>
 <g id="Layer_x0020_1">
  <metadata id="CorelCorpID_0Corel-Layer"/>
  <polygon class="fil0" points="15490.77,0 14107.66,5134.57 12651.57,5134.57 11721.65,1789.21 10823.51,5134.57 9359.18,5134.57 7976.08,0 9358.01,0 10146.67,3534.87 11094.25,0 12414.97,0 13324.88,3534.87 14152.39,0 "/>
  <polygon class="fil1" points="-0,5134.57 1383.11,0 2710.9,0 1327.78,5138.19 "/>
  <path class="fil0" d="M1599.42 5134.57l1383.11 -5134.57 1456.09 0 929.92 3345.36 898.14 -3345.36 1464.33 0 1383.11 5134.57 -1381.93 0 -788.66 -3534.87 -947.58 3534.87 -1320.72 0 -909.91 -3534.87 -827.51 3534.87 -1338.38 0zm241.7 -185.21l949.82 0 965.83 -4125.76 1062.02 4125.76 1035.05 0 1106.14 -4126.39 920.64 4126.39 991.8 0 -1283.33 -4764.16 -1180.37 0 -1037.08 3862.87 -1073.77 -3862.87 -1173.43 0 -1283.33 4764.16z"/>
 </g>
</svg>
