<?xml version="1.0" encoding="UTF-8"?>
<!DOCTYPE svg PUBLIC "-//W3C//DTD SVG 1.1//EN" "http://www.w3.org/Graphics/SVG/1.1/DTD/svg11.dtd">
<!-- Creator: CorelDRAW 2018 (64-Bit) -->
<svg xmlns="http://www.w3.org/2000/svg" xml:space="preserve" width="3.56776in" height="2.12421in" version="1.1" style="shape-rendering:geometricPrecision; text-rendering:geometricPrecision; image-rendering:optimizeQuality; fill-rule:evenodd; clip-rule:evenodd"
viewBox="0 0 3563.58 2121.73"
 xmlns:xlink="http://www.w3.org/1999/xlink">
 <defs>
  <style type="text/css">
   <![CDATA[
    .str0 {stroke:#373435;stroke-width:7.86;stroke-miterlimit:2.61313}
    .fil0 {fill:#373435}
   ]]>
  </style>
 </defs>
 <g id="Layer_x0020_1">
  <metadata id="CorelCorpID_0Corel-Layer"/>
  <path class="fil0 str0" d="M4.52 1060.86c385.68,-678.66 1098.47,-1056.93 1807.73,-1056.93 709.26,0 1448.35,483.96 1746.89,1056.93 -298.54,572.97 -1037.64,1056.93 -1746.89,1056.93 -709.26,0 -1422.05,-378.27 -1807.73,-1056.93zm1777.31 -742.63c410.14,0 742.63,332.49 742.63,742.63 0,410.14 -332.49,742.63 -742.63,742.63 -410.14,0 -742.63,-332.49 -742.63,-742.63 0,-410.14 332.49,-742.63 742.63,-742.63zm0 333.77c225.81,0 408.86,183.05 408.86,408.86 0,225.81 -183.05,408.86 -408.86,408.86 -225.81,0 -408.86,-183.05 -408.86,-408.86 0,-225.81 183.05,-408.86 408.86,-408.86z"/>
 </g>
</svg>
